<?xml version="1.0" encoding="UTF-8" standalone="no"?>
<!DOCTYPE svg PUBLIC "-//W3C//DTD SVG 1.1//EN"
 "http://www.w3.org/Graphics/SVG/1.1/DTD/svg11.dtd">
<!-- Generated by graphviz version 2.50.0 (20220708.1628)
 -->
<!-- Title: summarise_resources Pages: 1 -->
<svg width="550pt" height="378pt"
 viewBox="0.00 0.00 549.50 378.00" xmlns="http://www.w3.org/2000/svg" xmlns:xlink="http://www.w3.org/1999/xlink">
<g id="graph0" class="graph" transform="scale(1 1) rotate(0) translate(4 374)">
<title>summarise_resources</title>
<g id="a_graph0"><a xlink:title="Workflow: summarise MOTBX resource and changes">
<polygon fill="white" stroke="transparent" points="-4,4 -4,-374 545.5,-374 545.5,4 -4,4"/>
</a>
</g>
<!-- action_summary -->
<g id="node1" class="node">
<title>action_summary</title>
<g id="a_node1"><a xlink:href="https://github.com/EATRIS/motbx/actions/workflows/create_summary.yml" xlink:title="Manually triggered GitHub action">
<polygon fill="#6450a0" stroke="#6450a0" points="425.5,-370 251.5,-370 251.5,-334 425.5,-334 425.5,-370"/>
<text text-anchor="start" x="291.5" y="-355.8" font-family="Helvetica,Arial,sans-serif" font-weight="bold" font-size="14.00" fill="#ffffff">GitHub action:</text>
<text text-anchor="start" x="259.5" y="-341.8" font-family="Helvetica,Arial,sans-serif" font-size="14.00" fill="#ffffff">Create resource summary</text>
</a>
</g>
</g>
<!-- send_for_approval -->
<g id="node2" class="node">
<title>send_for_approval</title>
<g id="a_node2"><a xlink:href="https://github.com/EATRIS/motbx/tree/main/resources/summary" xlink:title="Send summary for approval">
<polygon fill="#1d2850" stroke="#1d2850" points="368.5,-297 186.5,-297 186.5,-247 368.5,-247 368.5,-297"/>
<text text-anchor="start" x="232" y="-282.8" font-family="Helvetica,Arial,sans-serif" font-weight="bold" font-size="14.00" fill="#ffffff">MOTBX team:</text>
<text text-anchor="start" x="199.5" y="-268.8" font-family="Helvetica,Arial,sans-serif" font-size="14.00" fill="#ffffff">Send change summary to</text>
<text text-anchor="start" x="194.5" y="-254.8" font-family="Helvetica,Arial,sans-serif" font-size="14.00" fill="#ffffff">MOTBX content committee​</text>
</a>
</g>
</g>
<!-- action_summary&#45;&gt;send_for_approval -->
<g id="edge1" class="edge">
<title>action_summary&#45;&gt;send_for_approval</title>
<path fill="none" stroke="black" d="M324.96,-333.69C318.38,-325.27 310.25,-314.88 302.6,-305.09"/>
<polygon fill="black" stroke="black" points="305.24,-302.79 296.32,-297.07 299.72,-307.1 305.24,-302.79"/>
</g>
<!-- content_review -->
<g id="node3" class="node">
<title>content_review</title>
<g id="a_node3"><a xlink:href="https://motbx.eatris.eu/motbx-team/" xlink:title="Changes are reviwed by content committee">
<polygon fill="#00b4b4" stroke="#00b4b4" points="354,-210 157,-210 157,-174 354,-174 354,-210"/>
<text text-anchor="start" x="165" y="-195.8" font-family="Helvetica,Arial,sans-serif" font-weight="bold" font-size="14.00" fill="#ffffff">MOTBX content committee:</text>
<text text-anchor="start" x="205.5" y="-181.8" font-family="Helvetica,Arial,sans-serif" font-size="14.00" fill="#ffffff">Review changes​</text>
</a>
</g>
</g>
<!-- send_for_approval&#45;&gt;content_review -->
<g id="edge2" class="edge">
<title>send_for_approval&#45;&gt;content_review</title>
<path fill="none" stroke="black" d="M270.66,-246.75C268.27,-238.26 265.56,-228.68 263.11,-219.99"/>
<polygon fill="black" stroke="black" points="266.46,-218.98 260.38,-210.3 259.73,-220.88 266.46,-218.98"/>
</g>
<!-- changes_approved -->
<g id="node4" class="node">
<title>changes_approved</title>
<g id="a_node4"><a xlink:title="Does the content committee approve resource changes?">
<polygon fill="#d2d2d2" stroke="#d2d2d2" points="207.5,-137 44.62,-119 207.5,-101 370.38,-119 207.5,-137"/>
<text text-anchor="middle" x="207.5" y="-115.3" font-family="Helvetica,Arial,sans-serif" font-size="14.00">Are all changes approved?</text>
</a>
</g>
</g>
<!-- content_review&#45;&gt;changes_approved -->
<g id="edge3" class="edge">
<title>content_review&#45;&gt;changes_approved</title>
<path fill="none" stroke="black" d="M243.88,-173.81C237.93,-165.01 230.59,-154.15 224.06,-144.49"/>
<polygon fill="black" stroke="black" points="226.85,-142.38 218.35,-136.06 221.06,-146.3 226.85,-142.38"/>
</g>
<!-- publish_changes -->
<g id="node5" class="node">
<title>publish_changes</title>
<g id="a_node5"><a xlink:href="https://motbx.eatris.eu/" xlink:title="Publish changes on MOTBX website">
<polygon fill="#1d2850" stroke="#1d2850" points="237,-43 0,-43 0,-7 237,-7 237,-43"/>
<text text-anchor="start" x="73" y="-28.8" font-family="Helvetica,Arial,sans-serif" font-weight="bold" font-size="14.00" fill="#ffffff">MOTBX team:</text>
<text text-anchor="start" x="8" y="-14.8" font-family="Helvetica,Arial,sans-serif" font-size="14.00" fill="#ffffff">Publish changes on MOTBX website</text>
</a>
</g>
</g>
<!-- changes_approved&#45;&gt;publish_changes -->
<g id="edge4" class="edge">
<title>changes_approved&#45;&gt;publish_changes</title>
<path fill="none" stroke="black" d="M192.4,-102.39C178.64,-88.17 158.09,-66.92 142.15,-50.44"/>
<polygon fill="black" stroke="black" points="144.66,-48 135.19,-43.25 139.63,-52.87 144.66,-48"/>
<text text-anchor="start" x="174.5" y="-72.8" font-family="Helvetica,Arial,sans-serif" font-style="italic" font-size="14.00">Yes</text>
</g>
<!-- resolve_issues -->
<g id="node6" class="node">
<title>resolve_issues</title>
<g id="a_node6"><a xlink:href="https://github.com/EATRIS/motbx/issues" xlink:title="Create issue per resource and make edits">
<polygon fill="#1d2850" stroke="#1d2850" points="541.5,-50 255.5,-50 255.5,0 541.5,0 541.5,-50"/>
<text text-anchor="start" x="353" y="-35.8" font-family="Helvetica,Arial,sans-serif" font-weight="bold" font-size="14.00" fill="#ffffff">MOTBX team:</text>
<text text-anchor="start" x="283.5" y="-21.8" font-family="Helvetica,Arial,sans-serif" font-size="14.00" fill="#ffffff">Follow the above workflow </text>
<text text-anchor="start" x="446.5" y="-21.8" font-family="Helvetica,Arial,sans-serif" font-style="italic" font-size="14.00" fill="#ffffff">changing a</text>
<text text-anchor="start" x="263.5" y="-7.8" font-family="Helvetica,Arial,sans-serif" font-style="italic" font-size="14.00" fill="#ffffff">MOTBX resource </text>
<text text-anchor="start" x="373.5" y="-7.8" font-family="Helvetica,Arial,sans-serif" font-size="14.00" fill="#ffffff"> to resolve approval issues</text>
</a>
</g>
</g>
<!-- changes_approved&#45;&gt;resolve_issues -->
<g id="edge5" class="edge">
<title>changes_approved&#45;&gt;resolve_issues</title>
<path fill="none" stroke="black" stroke-dasharray="1,5" d="M236.51,-104.03C263.6,-90.98 304.86,-71.1 338.96,-54.68"/>
<polygon fill="black" stroke="black" points="340.88,-57.64 348.37,-50.15 337.84,-51.33 340.88,-57.64"/>
<text text-anchor="start" x="309.5" y="-72.8" font-family="Helvetica,Arial,sans-serif" font-style="italic" font-size="14.00">No</text>
</g>
<!-- resolve_issues&#45;&gt;action_summary -->
<g id="edge6" class="edge">
<title>resolve_issues&#45;&gt;action_summary</title>
<path fill="none" stroke="black" stroke-dasharray="1,5" d="M398.5,-50.21C398.5,-68.77 398.5,-95 398.5,-118 398.5,-273 398.5,-273 398.5,-273 398.5,-294.24 384.35,-313.25 369.79,-327.18"/>
<polygon fill="black" stroke="black" points="367.31,-324.7 362.21,-333.99 371.99,-329.91 367.31,-324.7"/>
</g>
</g>
</svg>
