<?xml version="1.0" encoding="UTF-8" standalone="no"?>
<!DOCTYPE svg PUBLIC "-//W3C//DTD SVG 1.1//EN"
 "http://www.w3.org/Graphics/SVG/1.1/DTD/svg11.dtd">
<!-- Generated by graphviz version 2.50.0 (20220708.1628)
 -->
<!-- Title: add_resource Pages: 1 -->
<svg width="787pt" height="898pt"
 viewBox="0.00 0.00 786.50 898.00" xmlns="http://www.w3.org/2000/svg" xmlns:xlink="http://www.w3.org/1999/xlink">
<g id="graph0" class="graph" transform="scale(1 1) rotate(0) translate(4 894)">
<title>add_resource</title>
<g id="a_graph0"><a xlink:title="Workflow: changing a MOTBX resource">
<polygon fill="white" stroke="transparent" points="-4,4 -4,-894 782.5,-894 782.5,4 -4,4"/>
</a>
</g>
<!-- issue_creation -->
<g id="node1" class="node">
<title>issue_creation</title>
<g id="a_node1"><a xlink:href="https://github.com/EATRIS/motbx/issues/new/choose" xlink:title="Create issue">
<polygon fill="#fa9632" stroke="#fa9632" points="734.5,-890 483.5,-890 483.5,-840 734.5,-840 734.5,-890"/>
<text text-anchor="start" x="514" y="-875.8" font-family="Helvetica,Arial,sans-serif" font-weight="bold" font-size="14.00" fill="#ffffff">MOTBX community member:</text>
<text text-anchor="start" x="511.5" y="-861.8" font-family="Helvetica,Arial,sans-serif" font-size="14.00" fill="#ffffff">Create issue to request addition,</text>
<text text-anchor="start" x="491.5" y="-847.8" font-family="Helvetica,Arial,sans-serif" font-size="14.00" fill="#ffffff">removal or update of MOTBX resource​</text>
</a>
</g>
</g>
<!-- first_review -->
<g id="node2" class="node">
<title>first_review</title>
<g id="a_node2"><a xlink:href="https://github.com/EATRIS/motbx/issues" xlink:title="Review issue">
<polygon fill="#1d2850" stroke="#1d2850" points="664,-803 554,-803 554,-767 664,-767 664,-803"/>
<text text-anchor="start" x="563.5" y="-788.8" font-family="Helvetica,Arial,sans-serif" font-weight="bold" font-size="14.00" fill="#ffffff">MOTBX team:</text>
<text text-anchor="start" x="562" y="-774.8" font-family="Helvetica,Arial,sans-serif" font-size="14.00" fill="#ffffff">Review request​</text>
</a>
</g>
</g>
<!-- issue_creation&#45;&gt;first_review -->
<g id="edge1" class="edge">
<title>issue_creation&#45;&gt;first_review</title>
<path fill="none" stroke="black" d="M609,-839.75C609,-831.45 609,-822.1 609,-813.56"/>
<polygon fill="black" stroke="black" points="612.5,-813.3 609,-803.3 605.5,-813.3 612.5,-813.3"/>
</g>
<!-- approve_request -->
<g id="node3" class="node">
<title>approve_request</title>
<g id="a_node3"><a xlink:title="Should the resource be added?">
<polygon fill="#d2d2d2" stroke="#d2d2d2" points="495,-730 381.89,-712 495,-694 608.11,-712 495,-730"/>
<text text-anchor="middle" x="495" y="-708.3" font-family="Helvetica,Arial,sans-serif" font-size="14.00">Approve request?​</text>
</a>
</g>
</g>
<!-- first_review&#45;&gt;approve_request -->
<g id="edge2" class="edge">
<title>first_review&#45;&gt;approve_request</title>
<path fill="none" stroke="black" d="M581.69,-766.99C564.75,-756.44 542.96,-742.87 525.46,-731.97"/>
<polygon fill="black" stroke="black" points="527.09,-728.86 516.75,-726.55 523.39,-734.8 527.09,-728.86"/>
</g>
<!-- request_info -->
<g id="node4" class="node">
<title>request_info</title>
<g id="a_node4"><a xlink:title="Is additional information needed?">
<polygon fill="#d2d2d2" stroke="#d2d2d2" points="495,-643 304.97,-625 495,-607 685.03,-625 495,-643"/>
<text text-anchor="middle" x="495" y="-621.3" font-family="Helvetica,Arial,sans-serif" font-size="14.00">Request additional information?​</text>
</a>
</g>
</g>
<!-- approve_request&#45;&gt;request_info -->
<g id="edge3" class="edge">
<title>approve_request&#45;&gt;request_info</title>
<path fill="none" stroke="black" stroke-dasharray="1,5" d="M495,-693.8C495,-682.16 495,-666.55 495,-653.24"/>
<polygon fill="black" stroke="black" points="498.5,-653.18 495,-643.18 491.5,-653.18 498.5,-653.18"/>
<text text-anchor="start" x="495" y="-665.8" font-family="Helvetica,Arial,sans-serif" font-style="italic" font-size="14.00">Reject</text>
</g>
<!-- branch_creation -->
<g id="node8" class="node">
<title>branch_creation</title>
<g id="a_node8"><a xlink:href="https://github.com/EATRIS/motbx/issues" xlink:title="Create branch">
<polygon fill="#1d2850" stroke="#1d2850" points="277,-643 47,-643 47,-607 277,-607 277,-643"/>
<text text-anchor="start" x="116.5" y="-628.8" font-family="Helvetica,Arial,sans-serif" font-weight="bold" font-size="14.00" fill="#ffffff">MOTBX team:</text>
<text text-anchor="start" x="55" y="-614.8" font-family="Helvetica,Arial,sans-serif" font-size="14.00" fill="#ffffff">Create a new branch, add assignee</text>
</a>
</g>
</g>
<!-- approve_request&#45;&gt;branch_creation -->
<g id="edge8" class="edge">
<title>approve_request&#45;&gt;branch_creation</title>
<path fill="none" stroke="black" d="M453.83,-700.49C400.29,-686.82 305.7,-662.68 238.74,-645.59"/>
<polygon fill="black" stroke="black" points="239.21,-642.1 228.65,-643.01 237.48,-648.88 239.21,-642.1"/>
<text text-anchor="start" x="348" y="-665.8" font-family="Helvetica,Arial,sans-serif" font-style="italic" font-size="14.00">Approve</text>
</g>
<!-- comment_issue -->
<g id="node5" class="node">
<title>comment_issue</title>
<g id="a_node5"><a xlink:href="https://github.com/EATRIS/motbx/issues" xlink:title="Request further information">
<polygon fill="#1d2850" stroke="#1d2850" points="564,-556 292,-556 292,-520 564,-520 564,-556"/>
<text text-anchor="start" x="382.5" y="-541.8" font-family="Helvetica,Arial,sans-serif" font-weight="bold" font-size="14.00" fill="#ffffff">MOTBX team:</text>
<text text-anchor="start" x="300" y="-527.8" font-family="Helvetica,Arial,sans-serif" font-size="14.00" fill="#ffffff">Comment on issue to get additional details​</text>
</a>
</g>
</g>
<!-- request_info&#45;&gt;comment_issue -->
<g id="edge4" class="edge">
<title>request_info&#45;&gt;comment_issue</title>
<path fill="none" stroke="black" stroke-dasharray="1,5" d="M482.4,-608.01C472.64,-595.63 458.94,-578.25 447.73,-564.03"/>
<polygon fill="black" stroke="black" points="450.4,-561.77 441.47,-556.08 444.91,-566.1 450.4,-561.77"/>
<text text-anchor="start" x="465" y="-578.8" font-family="Helvetica,Arial,sans-serif" font-style="italic" font-size="14.00">Yes</text>
</g>
<!-- close_reject_issue -->
<g id="node7" class="node">
<title>close_reject_issue</title>
<g id="a_node7"><a xlink:href="https://github.com/EATRIS/motbx/issues" xlink:title="Close issue">
<polygon fill="#1d2850" stroke="#1d2850" points="689.5,-556 582.5,-556 582.5,-520 689.5,-520 689.5,-556"/>
<text text-anchor="start" x="590.5" y="-541.8" font-family="Helvetica,Arial,sans-serif" font-weight="bold" font-size="14.00" fill="#ffffff">MOTBX team:</text>
<text text-anchor="start" x="601" y="-527.8" font-family="Helvetica,Arial,sans-serif" font-size="14.00" fill="#ffffff">Close issue​</text>
</a>
</g>
</g>
<!-- request_info&#45;&gt;close_reject_issue -->
<g id="edge7" class="edge">
<title>request_info&#45;&gt;close_reject_issue</title>
<path fill="none" stroke="black" stroke-dasharray="1,5" d="M519.56,-609.19C541.41,-596.02 573.7,-576.56 598.74,-561.46"/>
<polygon fill="black" stroke="black" points="600.84,-564.28 607.6,-556.12 597.23,-558.29 600.84,-564.28"/>
<text text-anchor="start" x="573" y="-578.8" font-family="Helvetica,Arial,sans-serif" font-style="italic" font-size="14.00">No</text>
</g>
<!-- provide_info -->
<g id="node6" class="node">
<title>provide_info</title>
<g id="a_node6"><a xlink:href="https://github.com/EATRIS/motbx/issues" xlink:title="Provide further information">
<polygon fill="#fa9632" stroke="#fa9632" points="778.5,-483 499.5,-483 499.5,-447 778.5,-447 778.5,-483"/>
<text text-anchor="start" x="544" y="-468.8" font-family="Helvetica,Arial,sans-serif" font-weight="bold" font-size="14.00" fill="#ffffff">MOTBX community member:</text>
<text text-anchor="start" x="507.5" y="-454.8" font-family="Helvetica,Arial,sans-serif" font-size="14.00" fill="#ffffff">Comment on issue to provide further details​</text>
</a>
</g>
</g>
<!-- comment_issue&#45;&gt;provide_info -->
<g id="edge5" class="edge">
<title>comment_issue&#45;&gt;provide_info</title>
<path fill="none" stroke="black" stroke-dasharray="1,5" d="M478.54,-519.99C508.59,-509.88 546.9,-496.99 578.55,-486.34"/>
<polygon fill="black" stroke="black" points="579.78,-489.62 588.14,-483.11 577.55,-482.99 579.78,-489.62"/>
</g>
<!-- provide_info&#45;&gt;first_review -->
<g id="edge6" class="edge">
<title>provide_info&#45;&gt;first_review</title>
<path fill="none" stroke="black" stroke-dasharray="1,5" d="M677.57,-483.25C697.63,-495.09 718,-513.03 718,-537 718,-713 718,-713 718,-713 718,-738.32 697.09,-755.08 673.59,-765.92"/>
<polygon fill="black" stroke="black" points="671.98,-762.81 664.14,-769.93 674.71,-769.25 671.98,-762.81"/>
</g>
<!-- branch_update -->
<g id="node9" class="node">
<title>branch_update</title>
<g id="a_node9"><a xlink:href="https://github.com/EATRIS/motbx/branches" xlink:title="Update branch">
<polygon fill="#1d2850" stroke="#1d2850" points="274,-556 0,-556 0,-520 274,-520 274,-556"/>
<text text-anchor="start" x="91.5" y="-541.8" font-family="Helvetica,Arial,sans-serif" font-weight="bold" font-size="14.00" fill="#ffffff">MOTBX team:</text>
<text text-anchor="start" x="8" y="-527.8" font-family="Helvetica,Arial,sans-serif" font-size="14.00" fill="#ffffff">Add, remove, or update resource in branch​</text>
</a>
</g>
</g>
<!-- branch_creation&#45;&gt;branch_update -->
<g id="edge9" class="edge">
<title>branch_creation&#45;&gt;branch_update</title>
<path fill="none" stroke="black" d="M156.94,-606.8C153.48,-595.05 148.83,-579.24 144.89,-565.84"/>
<polygon fill="black" stroke="black" points="148.23,-564.78 142.05,-556.18 141.52,-566.76 148.23,-564.78"/>
</g>
<!-- pull_request -->
<g id="node10" class="node">
<title>pull_request</title>
<g id="a_node10"><a xlink:href="https://github.com/EATRIS/motbx/branches" xlink:title="Create pull request">
<polygon fill="#1d2850" stroke="#1d2850" points="296.5,-483 165.5,-483 165.5,-447 296.5,-447 296.5,-483"/>
<text text-anchor="start" x="185.5" y="-468.8" font-family="Helvetica,Arial,sans-serif" font-weight="bold" font-size="14.00" fill="#ffffff">MOTBX team:</text>
<text text-anchor="start" x="173.5" y="-454.8" font-family="Helvetica,Arial,sans-serif" font-size="14.00" fill="#ffffff">Create pull request​</text>
</a>
</g>
</g>
<!-- branch_update&#45;&gt;pull_request -->
<g id="edge10" class="edge">
<title>branch_update&#45;&gt;pull_request</title>
<path fill="none" stroke="black" d="M159.75,-519.81C171.88,-510.66 186.97,-499.26 200.13,-489.32"/>
<polygon fill="black" stroke="black" points="202.58,-491.85 208.45,-483.03 198.37,-486.26 202.58,-491.85"/>
</g>
<!-- action_validation -->
<g id="node11" class="node">
<title>action_validation</title>
<g id="a_node11"><a xlink:href="https://github.com/EATRIS/motbx/actions/workflows/validate_resources.yml" xlink:title="Automated resource validation">
<polygon fill="#6450a0" stroke="#6450a0" points="427.5,-410 128.5,-410 128.5,-374 427.5,-374 427.5,-410"/>
<text text-anchor="start" x="162" y="-395.8" font-family="Helvetica,Arial,sans-serif" font-weight="bold" font-size="14.00" fill="#ffffff">Triggered automated GitHub action:</text>
<text text-anchor="start" x="136.5" y="-381.8" font-family="Helvetica,Arial,sans-serif" font-size="14.00" fill="#ffffff">Perform tests validating resources in repository​</text>
</a>
</g>
</g>
<!-- pull_request&#45;&gt;action_validation -->
<g id="edge11" class="edge">
<title>pull_request&#45;&gt;action_validation</title>
<path fill="none" stroke="black" d="M242.38,-446.81C247.98,-438.35 254.84,-427.98 261.05,-418.61"/>
<polygon fill="black" stroke="black" points="264.13,-420.3 266.73,-410.03 258.29,-416.44 264.13,-420.3"/>
</g>
<!-- pull_request_review -->
<g id="node12" class="node">
<title>pull_request_review</title>
<g id="a_node12"><a xlink:href="https://github.com/EATRIS/motbx/pulls" xlink:title="Review pull request">
<polygon fill="#1d2850" stroke="#1d2850" points="370,-337 236,-337 236,-301 370,-301 370,-337"/>
<text text-anchor="start" x="257.5" y="-322.8" font-family="Helvetica,Arial,sans-serif" font-weight="bold" font-size="14.00" fill="#ffffff">MOTBX team:</text>
<text text-anchor="start" x="244" y="-308.8" font-family="Helvetica,Arial,sans-serif" font-size="14.00" fill="#ffffff">Review pull request​</text>
</a>
</g>
</g>
<!-- action_validation&#45;&gt;pull_request_review -->
<g id="edge12" class="edge">
<title>action_validation&#45;&gt;pull_request_review</title>
<path fill="none" stroke="black" d="M284.05,-373.81C286.94,-365.62 290.46,-355.62 293.67,-346.48"/>
<polygon fill="black" stroke="black" points="296.98,-347.62 297,-337.03 290.38,-345.3 296.98,-347.62"/>
</g>
<!-- validation_passed -->
<g id="node13" class="node">
<title>validation_passed</title>
<g id="a_node13"><a xlink:title="Could resources be validated?">
<polygon fill="#d2d2d2" stroke="#d2d2d2" points="309,-264 117.63,-246 309,-228 500.37,-246 309,-264"/>
<text text-anchor="middle" x="309" y="-242.3" font-family="Helvetica,Arial,sans-serif" font-size="14.00">Did all automated checks pass?​</text>
</a>
</g>
</g>
<!-- pull_request_review&#45;&gt;validation_passed -->
<g id="edge13" class="edge">
<title>pull_request_review&#45;&gt;validation_passed</title>
<path fill="none" stroke="black" d="M304.45,-300.81C305.13,-292.79 305.95,-283.05 306.71,-274.07"/>
<polygon fill="black" stroke="black" points="310.21,-274.29 307.56,-264.03 303.23,-273.7 310.21,-274.29"/>
</g>
<!-- expectations_met -->
<g id="node14" class="node">
<title>expectations_met</title>
<g id="a_node14"><a xlink:title="Is resource described as expected?">
<polygon fill="#d2d2d2" stroke="#d2d2d2" points="366,-177 172,-139 366,-101 560,-139 366,-177"/>
<text text-anchor="middle" x="366" y="-142.8" font-family="Helvetica,Arial,sans-serif" font-size="14.00">Do the implemented changes</text>
<text text-anchor="middle" x="366" y="-127.8" font-family="Helvetica,Arial,sans-serif" font-size="14.00">meet expectations?​</text>
</a>
</g>
</g>
<!-- validation_passed&#45;&gt;expectations_met -->
<g id="edge14" class="edge">
<title>validation_passed&#45;&gt;expectations_met</title>
<path fill="none" stroke="black" d="M317.91,-228.59C324.62,-216.23 334.14,-198.7 342.94,-182.49"/>
<polygon fill="black" stroke="black" points="346.03,-184.11 347.73,-173.66 339.88,-180.77 346.03,-184.11"/>
<text text-anchor="start" x="335" y="-199.8" font-family="Helvetica,Arial,sans-serif" font-style="italic" font-size="14.00">Yes</text>
</g>
<!-- pull_request_draft -->
<g id="node16" class="node">
<title>pull_request_draft</title>
<g id="a_node16"><a xlink:href="https://github.com/EATRIS/motbx/pulls" xlink:title="Edits required">
<polygon fill="#1d2850" stroke="#1d2850" points="239.5,-50 22.5,-50 22.5,0 239.5,0 239.5,-50"/>
<text text-anchor="start" x="85.5" y="-35.8" font-family="Helvetica,Arial,sans-serif" font-weight="bold" font-size="14.00" fill="#ffffff">MOTBX team:</text>
<text text-anchor="start" x="45.5" y="-21.8" font-family="Helvetica,Arial,sans-serif" font-size="14.00" fill="#ffffff">Convert pull request to draft,</text>
<text text-anchor="start" x="30.5" y="-7.8" font-family="Helvetica,Arial,sans-serif" font-size="14.00" fill="#ffffff">comment on issue to request edit​</text>
</a>
</g>
</g>
<!-- validation_passed&#45;&gt;pull_request_draft -->
<g id="edge16" class="edge">
<title>validation_passed&#45;&gt;pull_request_draft</title>
<path fill="none" stroke="black" stroke-dasharray="1,5" d="M242.07,-234.17C207.49,-224.96 167.86,-208.02 145,-177 120.2,-143.34 120.78,-93.33 124.8,-60.21"/>
<polygon fill="black" stroke="black" points="128.29,-60.48 126.19,-50.09 121.36,-59.52 128.29,-60.48"/>
<text text-anchor="start" x="145" y="-136.3" font-family="Helvetica,Arial,sans-serif" font-style="italic" font-size="14.00">No</text>
</g>
<!-- pull_request_merge -->
<g id="node15" class="node">
<title>pull_request_merge</title>
<g id="a_node15"><a xlink:href="https://github.com/EATRIS/motbx/pulls" xlink:title="Merge pull request">
<polygon fill="#1d2850" stroke="#1d2850" points="484,-43 258,-43 258,-7 484,-7 484,-43"/>
<text text-anchor="start" x="325.5" y="-28.8" font-family="Helvetica,Arial,sans-serif" font-weight="bold" font-size="14.00" fill="#ffffff">MOTBX team:</text>
<text text-anchor="start" x="266" y="-14.8" font-family="Helvetica,Arial,sans-serif" font-size="14.00" fill="#ffffff">Merge pull request and close issue​</text>
</a>
</g>
</g>
<!-- expectations_met&#45;&gt;pull_request_merge -->
<g id="edge15" class="edge">
<title>expectations_met&#45;&gt;pull_request_merge</title>
<path fill="none" stroke="black" d="M367.65,-101.02C368.34,-85.48 369.14,-67.73 369.78,-53.39"/>
<polygon fill="black" stroke="black" points="373.28,-53.34 370.23,-43.19 366.29,-53.02 373.28,-53.34"/>
<text text-anchor="start" x="369" y="-72.8" font-family="Helvetica,Arial,sans-serif" font-style="italic" font-size="14.00">Yes</text>
</g>
<!-- expectations_met&#45;&gt;pull_request_draft -->
<g id="edge17" class="edge">
<title>expectations_met&#45;&gt;pull_request_draft</title>
<path fill="none" stroke="black" stroke-dasharray="1,5" d="M310.9,-111.74C274.88,-94.57 227.85,-72.16 190.9,-54.55"/>
<polygon fill="black" stroke="black" points="192.27,-51.32 181.74,-50.18 189.26,-57.64 192.27,-51.32"/>
<text text-anchor="start" x="248" y="-72.8" font-family="Helvetica,Arial,sans-serif" font-style="italic" font-size="14.00">No</text>
</g>
<!-- pull_request_draft&#45;&gt;branch_update -->
<g id="edge18" class="edge">
<title>pull_request_draft&#45;&gt;branch_update</title>
<path fill="none" stroke="black" stroke-dasharray="1,5" d="M116.43,-50.42C104.64,-72.5 90,-106.32 90,-138 90,-466 90,-466 90,-466 90,-483.22 99.73,-499.47 110.34,-512.06"/>
<polygon fill="black" stroke="black" points="108.03,-514.73 117.34,-519.79 113.22,-510.03 108.03,-514.73"/>
</g>
</g>
</svg>
